<svg aria-hidden="true" style="position: absolute; width: 0; height: 0; overflow: hidden;" version="1.1" xmlns="http://www.w3.org/2000/svg" xmlns:xlink="http://www.w3.org/1999/xlink">
<defs>
<symbol id="icon-accessibility" viewBox="0 0 24 24">
<path d="M12 0c1.32 0 2.4 1.080 2.4 2.4s-1.080 2.4-2.4 2.4-2.4-1.080-2.4-2.4 1.080-2.4 2.4-2.4zM22.8 8.4h-7.2v15.6h-2.4v-7.2h-2.4v7.2h-2.4v-15.6h-7.2v-2.4h21.6v2.4z"></path>
</symbol>
<symbol id="icon-home" viewBox="0 0 24 24">
<path d="M24 13.839l-12-9.315-12 9.315v-3.798l12-9.315 12 9.315zM21 13.5v9h-6v-6h-6v6h-6v-9l9-6.75z"></path>
</symbol>
<symbol id="icon-home2" viewBox="0 0 24 24">
<path d="M12 0.75l-12 12 2.25 2.25 2.25-2.25v9.75h6v-4.5h3v4.5h6v-9.75l2.25 2.25 2.25-2.25-12-12zM12 10.5c-0.828 0-1.5-0.672-1.5-1.5s0.672-1.5 1.5-1.5c0.828 0 1.5 0.672 1.5 1.5s-0.672 1.5-1.5 1.5z"></path>
</symbol>
<symbol id="icon-home3" viewBox="0 0 24 24">
<path d="M24 14.25l-4.5-4.5v-6.75h-3v3.75l-4.5-4.5-12 12v0.75h3v7.5h7.5v-4.5h3v4.5h7.5v-7.5h3z"></path>
</symbol>
<symbol id="icon-office" viewBox="0 0 24 24">
<path d="M0 24h12v-24h-12v24zM7.5 3h3v3h-3v-3zM7.5 9h3v3h-3v-3zM7.5 15h3v3h-3v-3zM1.5 3h3v3h-3v-3zM1.5 9h3v3h-3v-3zM1.5 15h3v3h-3v-3zM13.5 7.5h10.5v1.5h-10.5zM13.5 24h3v-6h4.5v6h3v-13.5h-10.5z"></path>
</symbol>
<symbol id="icon-newspaper" viewBox="0 0 24 24">
<path d="M21 6v-3h-21v16.5c0 0.828 0.672 1.5 1.5 1.5h20.25c1.243 0 2.25-1.007 2.25-2.25v-12.75h-3zM19.5 19.5h-18v-15h18v15zM3 7.5h15v1.5h-15zM12 10.5h6v1.5h-6zM12 13.5h6v1.5h-6zM12 16.5h4.5v1.5h-4.5zM3 10.5h7.5v7.5h-7.5z"></path>
</symbol>
<symbol id="icon-pencil" viewBox="0 0 24 24">
<path d="M20.25 0c2.071 0 3.75 1.679 3.75 3.75 0 0.844-0.279 1.623-0.75 2.25l-1.5 1.5-5.25-5.25 1.5-1.5c0.627-0.471 1.406-0.75 2.25-0.75zM1.5 17.25l-1.5 6.75 6.75-1.5 13.875-13.875-5.25-5.25-13.875 13.875zM16.771 8.521l-10.5 10.5-1.293-1.293 10.5-10.5 1.293 1.293z"></path>
</symbol>
<symbol id="icon-pencil2" viewBox="0 0 24 24">
<path d="M9 15l3-1.5 10.5-10.5-1.5-1.5-10.5 10.5-1.5 3zM6.78 20.323c-0.741-1.564-1.539-2.362-3.103-3.103l2.323-6.394 3-1.826 9-9h-4.5l-9 9-4.5 15 15-4.5 9-9v-4.5l-9 9-1.826 3z"></path>
</symbol>
<symbol id="icon-quill" viewBox="0 0 24 24">
<path d="M0 24c3-9 10.852-24 24-24-6.164 4.945-9 16.5-13.5 16.5s-4.5 0-4.5 0l-4.5 7.5h-1.5z"></path>
</symbol>
<symbol id="icon-pen" viewBox="0 0 24 24">
<path d="M23.863 6.841l-6.704-6.704c-0.219-0.219-0.507-0.17-0.641 0.109l-0.899 1.873 6.262 6.262 1.873-0.899c0.279-0.134 0.328-0.422 0.109-0.641z"></path>
<path d="M14.423 3.173l-6.173 0.514c-0.41 0.051-0.752 0.138-0.869 0.674-0 0.001-0 0.001-0 0.002-1.674 8.041-7.38 15.887-7.38 15.887l1.345 1.345 6.375-6.375c-0.141-0.294-0.219-0.623-0.219-0.97 0-1.243 1.007-2.25 2.25-2.25s2.25 1.007 2.25 2.25-1.007 2.25-2.25 2.25c-0.347 0-0.676-0.079-0.97-0.219l-6.375 6.375 1.345 1.345c0 0 7.846-5.706 15.887-7.38 0.001-0 0.001-0 0.002-0 0.536-0.117 0.623-0.459 0.674-0.869l0.514-6.173-6.404-6.404z"></path>
</symbol>
<symbol id="icon-blog" viewBox="0 0 24 24">
<path d="M9 0v2.25c1.722 0 3.392 0.337 4.962 1.001 1.518 0.642 2.882 1.562 4.053 2.733s2.091 2.535 2.733 4.053c0.664 1.57 1.001 3.24 1.001 4.962h2.25c0-8.284-6.716-15-15-15z"></path>
<path d="M9 4.5v2.25c2.204 0 4.275 0.858 5.834 2.416s2.416 3.63 2.416 5.834h2.25c0-5.799-4.701-10.5-10.5-10.5z"></path>
<path d="M11.25 9l-1.5 1.5-5.25 1.5-4.5 9.75 0.595 0.595 5.456-5.456c-0.033-0.124-0.051-0.254-0.051-0.388 0-0.828 0.672-1.5 1.5-1.5s1.5 0.672 1.5 1.5-0.672 1.5-1.5 1.5c-0.134 0-0.264-0.018-0.388-0.051l-5.456 5.456 0.595 0.595 9.75-4.5 1.5-5.25 1.5-1.5-3.75-3.75z"></path>
</symbol>
<symbol id="icon-eyedropper" viewBox="0 0 24 24">
<path d="M23.121 0.879c-1.172-1.172-3.071-1.172-4.243 0l-4.034 4.034-2.845-2.845-3.182 3.182 2.494 2.494-11.065 11.065c-0.189 0.189-0.269 0.444-0.241 0.69h-0.006v3.75c0 0.414 0.336 0.75 0.75 0.75h3.75c0 0 0.062 0 0.094 0 0.216 0 0.432-0.082 0.597-0.247l11.065-11.065 2.494 2.494 3.182-3.182-2.845-2.845 4.034-4.034c1.172-1.172 1.172-3.071 0-4.243zM4.057 22.5h-2.557v-2.557l11.006-11.006 2.557 2.557-11.006 11.006z"></path>
</symbol>
<symbol id="icon-droplet" viewBox="0 0 24 24">
<path d="M20.265 11.090c-1.541-4.299-4.807-8.16-8.265-11.090-3.457 2.93-6.724 6.79-8.265 11.090-0.953 2.659-1.047 5.544 0.295 8.095 1.543 2.933 4.655 4.815 7.97 4.815s6.426-1.882 7.97-4.815c1.342-2.551 1.248-5.437 0.295-8.095zM17.315 17.788c-1.027 1.951-3.113 3.212-5.315 3.212-1.292 0-2.544-0.434-3.565-1.187 0.31 0.040 0.624 0.062 0.94 0.062 2.752 0 5.359-1.575 6.642-4.013 1.052-1.999 0.96-4.075 0.56-5.727 0.341 0.66 0.631 1.317 0.864 1.967 0.53 1.478 0.938 3.664-0.126 5.686z"></path>
</symbol>
<symbol id="icon-paint-format" viewBox="0 0 24 24">
<path d="M24 13.5v-9h-4.5v-1.5c0-0.825-0.675-1.5-1.5-1.5h-16.5c-0.825 0-1.5 0.675-1.5 1.5v4.5c0 0.825 0.675 1.5 1.5 1.5h16.5c0.825 0 1.5-0.675 1.5-1.5v-1.5h3v6h-13.5v3h-0.75c-0.414 0-0.75 0.336-0.75 0.75v7.5c0 0.414 0.336 0.75 0.75 0.75h3c0.414 0 0.75-0.336 0.75-0.75v-7.5c0-0.414-0.336-0.75-0.75-0.75h-0.75v-1.5h13.5zM18 4.5h-16.5v-1.5h16.5v1.5z"></path>
</symbol>
<symbol id="icon-image" viewBox="0 0 24 24">
<path d="M22.497 3c0.001 0.001 0.002 0.002 0.003 0.003v17.995c-0.001 0.001-0.002 0.002-0.003 0.003h-20.995c-0.001-0.001-0.002-0.002-0.003-0.003v-17.995c0.001-0.001 0.002-0.002 0.003-0.003h20.995zM22.5 1.5h-21c-0.825 0-1.5 0.675-1.5 1.5v18c0 0.825 0.675 1.5 1.5 1.5h21c0.825 0 1.5-0.675 1.5-1.5v-18c0-0.825-0.675-1.5-1.5-1.5v0z"></path>
<path d="M19.5 6.75c0 1.243-1.007 2.25-2.25 2.25s-2.25-1.007-2.25-2.25 1.007-2.25 2.25-2.25 2.25 1.007 2.25 2.25z"></path>
<path d="M21 19.5h-18v-3l5.25-9 6 7.5h1.5l5.25-4.5z"></path>
</symbol>
<symbol id="icon-images" viewBox="0 0 27 24">
<path d="M25.5 3h-1.5v-1.5c0-0.825-0.675-1.5-1.5-1.5h-21c-0.825 0-1.5 0.675-1.5 1.5v18c0 0.825 0.675 1.5 1.5 1.5h1.5v1.5c0 0.825 0.675 1.5 1.5 1.5h21c0.825 0 1.5-0.675 1.5-1.5v-18c0-0.825-0.675-1.5-1.5-1.5zM3 4.5v15h-1.497c-0.001-0.001-0.002-0.002-0.003-0.003v-17.995c0.001-0.001 0.002-0.002 0.003-0.003h20.995c0.001 0.001 0.002 0.002 0.003 0.003v1.497h-18c-0.825 0-1.5 0.675-1.5 1.5v0zM25.5 22.497c-0.001 0.001-0.002 0.002-0.003 0.003h-20.995c-0.001-0.001-0.002-0.002-0.003-0.003v-17.995c0.001-0.001 0.002-0.002 0.003-0.003h20.995c0.001 0.001 0.002 0.002 0.003 0.003v17.995z"></path>
<path d="M22.5 8.25c0 1.243-1.007 2.25-2.25 2.25s-2.25-1.007-2.25-2.25 1.007-2.25 2.25-2.25 2.25 1.007 2.25 2.25z"></path>
<path d="M24 21h-18v-3l5.25-9 6 7.5h1.5l5.25-4.5z"></path>
</symbol>
<symbol id="icon-camera" viewBox="0 0 24 24">
<path d="M7.125 14.25c0 2.692 2.183 4.875 4.875 4.875s4.875-2.183 4.875-4.875-2.183-4.875-4.875-4.875-4.875 2.183-4.875 4.875zM22.5 6h-5.25c-0.375-1.5-0.75-3-2.25-3h-6c-1.5 0-1.875 1.5-2.25 3h-5.25c-0.825 0-1.5 0.675-1.5 1.5v13.5c0 0.825 0.675 1.5 1.5 1.5h21c0.825 0 1.5-0.675 1.5-1.5v-13.5c0-0.825-0.675-1.5-1.5-1.5zM12 20.906c-3.676 0-6.656-2.98-6.656-6.656s2.98-6.656 6.656-6.656c3.676 0 6.656 2.98 6.656 6.656s-2.98 6.656-6.656 6.656zM22.5 10.5h-3v-1.5h3v1.5z"></path>
</symbol>
<symbol id="icon-headphones" viewBox="0 0 24 24">
<path d="M6.75 13.5h-1.5v10.5h1.5c0.413 0 0.75-0.337 0.75-0.75v-9c0-0.413-0.337-0.75-0.75-0.75z"></path>
<path d="M17.25 13.5c-0.413 0-0.75 0.337-0.75 0.75v9c0 0.413 0.337 0.75 0.75 0.75h1.5v-10.5h-1.5z"></path>
<path d="M24 12c0-6.627-5.373-12-12-12s-12 5.373-12 12c0 1.439 0.254 2.819 0.718 4.098-0.457 0.778-0.718 1.684-0.718 2.652 0 2.645 1.956 4.833 4.5 5.196v-10.393c-0.748 0.107-1.445 0.371-2.057 0.759-0.126-0.626-0.193-1.274-0.193-1.938 0-5.385 4.365-9.75 9.75-9.75s9.75 4.365 9.75 9.75c0 0.664-0.066 1.312-0.193 1.938-0.612-0.388-1.309-0.653-2.057-0.76v10.393c2.544-0.364 4.5-2.552 4.5-5.196 0-0.967-0.262-1.873-0.718-2.652 0.465-1.279 0.718-2.659 0.718-4.098z"></path>
</symbol>
<symbol id="icon-music" viewBox="0 0 24 24">
<path d="M22.5 0h1.5v17.25c0 2.071-2.351 3.75-5.25 3.75s-5.25-1.679-5.25-3.75c0-2.071 2.351-3.75 5.25-3.75 1.469 0 2.797 0.431 3.75 1.126v-8.626l-12 2.667v11.583c0 2.071-2.351 3.75-5.25 3.75s-5.25-1.679-5.25-3.75c0-2.071 2.35-3.75 5.25-3.75 1.469 0 2.797 0.431 3.75 1.126v-14.626l13.5-3z"></path>
</symbol>
<symbol id="icon-play" viewBox="0 0 24 24">
<path d="M22.997 3.753c-3.366-0.484-7.086-0.753-10.997-0.753s-7.63 0.269-10.997 0.753c-0.645 2.525-1.003 5.314-1.003 8.247s0.358 5.723 1.003 8.247c3.367 0.484 7.086 0.753 10.997 0.753s7.63-0.269 10.997-0.753c0.645-2.525 1.003-5.314 1.003-8.247s-0.358-5.723-1.003-8.247zM9 16.5v-9l7.5 4.5-7.5 4.5z"></path>
</symbol>
<symbol id="icon-film" viewBox="0 0 24 24">
<path d="M0 3v18h24v-18h-24zM4.5 19.5h-3v-3h3v3zM4.5 13.5h-3v-3h3v3zM4.5 7.5h-3v-3h3v3zM18 19.5h-12v-15h12v15zM22.5 19.5h-3v-3h3v3zM22.5 13.5h-3v-3h3v3zM22.5 7.5h-3v-3h3v3zM9 7.5v9l6-4.5z"></path>
</symbol>
<symbol id="icon-video-camera" viewBox="0 0 24 24">
<path d="M9 6.75c0-2.071 1.679-3.75 3.75-3.75s3.75 1.679 3.75 3.75c0 2.071-1.679 3.75-3.75 3.75s-3.75-1.679-3.75-3.75zM0 6.75c0-2.071 1.679-3.75 3.75-3.75s3.75 1.679 3.75 3.75c0 2.071-1.679 3.75-3.75 3.75s-3.75-1.679-3.75-3.75zM18 14.25v-2.25c0-0.825-0.675-1.5-1.5-1.5h-15c-0.825 0-1.5 0.675-1.5 1.5v7.5c0 0.825 0.675 1.5 1.5 1.5h15c0.825 0 1.5-0.675 1.5-1.5v-2.25l6 3.75v-10.5l-6 3.75zM15 18h-12v-4.5h12v4.5z"></path>
</symbol>
<symbol id="icon-dice" viewBox="0 0 24 24">
<path d="M20.25 4.5h-12c-2.063 0-3.75 1.688-3.75 3.75v12c0 2.063 1.688 3.75 3.75 3.75h12c2.063 0 3.75-1.688 3.75-3.75v-12c0-2.063-1.688-3.75-3.75-3.75zM9.75 21c-1.243 0-2.25-1.007-2.25-2.25s1.007-2.25 2.25-2.25 2.25 1.007 2.25 2.25-1.007 2.25-2.25 2.25zM9.75 12c-1.243 0-2.25-1.007-2.25-2.25s1.007-2.25 2.25-2.25 2.25 1.007 2.25 2.25-1.007 2.25-2.25 2.25zM14.25 16.5c-1.243 0-2.25-1.007-2.25-2.25s1.007-2.25 2.25-2.25 2.25 1.007 2.25 2.25-1.007 2.25-2.25 2.25zM18.75 21c-1.243 0-2.25-1.007-2.25-2.25s1.007-2.25 2.25-2.25 2.25 1.007 2.25 2.25-1.007 2.25-2.25 2.25zM18.75 12c-1.243 0-2.25-1.007-2.25-2.25s1.007-2.25 2.25-2.25 2.25 1.007 2.25 2.25-1.007 2.25-2.25 2.25zM19.424 3c-0.35-1.706-1.868-3-3.674-3h-12c-2.063 0-3.75 1.688-3.75 3.75v12c0 1.806 1.294 3.324 3 3.674v-14.924c0-0.825 0.675-1.5 1.5-1.5h14.924z"></path>
</symbol>
<symbol id="icon-pacman" viewBox="0 0 24 24">
<path d="M22.611 4.191c-2.201-2.565-5.466-4.191-9.111-4.191-6.627 0-12 5.373-12 12s5.373 12 12 12c3.645 0 6.91-1.626 9.111-4.191l-7.611-7.809 7.611-7.809zM16.5 2.827c0.924 0 1.673 0.749 1.673 1.673s-0.749 1.673-1.673 1.673-1.673-0.749-1.673-1.673c0-0.924 0.749-1.673 1.673-1.673z"></path>
</symbol>
<symbol id="icon-spades" viewBox="0 0 24 24">
<path d="M19.162 8.16c-4.537-3.372-6.1-6.071-7.162-8.16v0c-0 0-0-0-0-0v0c-1.062 2.089-2.625 4.788-7.162 8.16-7.735 5.749-0.454 13.773 5.947 9.357-0.417 2.741-1.841 4.738-3.286 5.599v0.885h9.001v-0.885c-1.446-0.86-2.869-2.858-3.286-5.599 6.402 4.417 13.683-3.608 5.948-9.357z"></path>
</symbol>
<symbol id="icon-clubs" viewBox="0 0 24 24">
<path d="M18.441 9.206c-1.384 0-2.627 0.576-3.512 1.516-0.375 0.398-1.026 0.87-1.73 1.285 0.331-1.263 1.375-2.852 2.101-3.55 0.929-0.895 1.5-2.152 1.5-3.551 0-2.693-2.144-4.877-4.8-4.906-2.656 0.029-4.8 2.213-4.8 4.906 0 1.399 0.571 2.656 1.5 3.551 0.725 0.697 1.77 2.287 2.101 3.55-0.704-0.415-1.355-0.887-1.73-1.285-0.885-0.94-2.129-1.516-3.512-1.516-2.681 0-4.853 2.195-4.853 4.906s2.172 4.906 4.853 4.906c1.384 0 2.627-0.594 3.512-1.534 0.394-0.419 1.089-0.941 1.835-1.374-0.070 3.462-1.723 6.004-3.406 7.006v0.885h9v-0.885c-1.683-1.002-3.336-3.544-3.406-7.006 0.747 0.433 1.441 0.956 1.835 1.374 0.885 0.94 2.128 1.534 3.512 1.534 2.681 0 4.853-2.196 4.853-4.906s-2.172-4.906-4.853-4.906z"></path>
</symbol>
<symbol id="icon-diamonds" viewBox="0 0 24 24">
<path d="M12 0l-7.5 12 7.5 12 7.5-12z"></path>
</symbol>
<symbol id="icon-bullhorn" viewBox="0 0 24 24">
<path d="M24 10.061c0-4.709-1.378-8.53-3.082-8.56 0.007-0 0.014-0.001 0.020-0.001h-1.944c0 0-4.566 3.43-11.138 4.775-0.201 1.062-0.329 2.327-0.329 3.785s0.128 2.724 0.329 3.785c6.573 1.346 11.138 4.776 11.138 4.776h1.944c-0.007 0-0.014-0.001-0.020-0.001 1.704-0.030 3.082-3.851 3.082-8.56zM20.269 17.326c-0.22 0-0.458-0.228-0.58-0.364-0.296-0.33-0.581-0.843-0.825-1.484-0.545-1.435-0.845-3.359-0.845-5.417s0.3-3.982 0.845-5.417c0.244-0.641 0.529-1.155 0.825-1.484 0.122-0.136 0.36-0.365 0.58-0.365s0.458 0.228 0.58 0.365c0.296 0.33 0.581 0.843 0.825 1.484 0.545 1.435 0.845 3.359 0.845 5.417s-0.3 3.982-0.845 5.417c-0.244 0.641-0.529 1.155-0.825 1.484-0.122 0.136-0.36 0.364-0.58 0.364zM5.902 10.061c0-1.218 0.089-2.401 0.259-3.494-1.11 0.154-2.085 0.242-3.289 0.242-1.572 0-1.572 0-1.572 0l-1.3 2.219v2.066l1.3 2.219c0 0 0 0 1.572 0 1.205 0 2.179 0.088 3.289 0.242-0.17-1.094-0.259-2.277-0.259-3.494zM8.629 15.051l-3-0.574 1.918 7.536c0.099 0.39 0.486 0.587 0.86 0.437l2.779-1.112c0.374-0.149 0.523-0.562 0.333-0.916l-2.889-5.371zM20.269 12.861c-0.085 0-0.176-0.088-0.224-0.14-0.114-0.127-0.224-0.325-0.318-0.572-0.21-0.553-0.326-1.295-0.326-2.088s0.116-1.535 0.326-2.088c0.094-0.247 0.204-0.445 0.318-0.572 0.047-0.053 0.139-0.14 0.224-0.14s0.176 0.088 0.224 0.14c0.114 0.127 0.224 0.325 0.318 0.572 0.21 0.553 0.326 1.295 0.326 2.088s-0.116 1.535-0.326 2.088c-0.094 0.247-0.204 0.445-0.318 0.572-0.047 0.052-0.139 0.14-0.224 0.14z"></path>
</symbol>
<symbol id="icon-connection" viewBox="0 0 30 24">
<path d="M15 13.5c2.481 0 4.731 1.009 6.361 2.639l-2.12 2.12c-1.086-1.086-2.586-1.759-4.241-1.759s-3.154 0.673-4.241 1.759l-2.12-2.12c1.63-1.63 3.88-2.639 6.361-2.639zM4.393 11.893c2.833-2.833 6.6-4.393 10.607-4.393s7.773 1.56 10.607 4.393l-2.121 2.121c-2.267-2.267-5.28-3.515-8.485-3.515s-6.219 1.248-8.485 3.515l-2.121-2.121zM23.175 3.151c2.501 1.058 4.746 2.572 6.675 4.5v0l-2.121 2.121c-3.4-3.4-7.92-5.272-12.728-5.272s-9.328 1.872-12.728 5.272l-2.121-2.121c1.928-1.928 4.174-3.442 6.675-4.5 2.59-1.095 5.34-1.651 8.175-1.651s5.585 0.555 8.175 1.651zM13.5 21c0-0.828 0.672-1.5 1.5-1.5s1.5 0.672 1.5 1.5c0 0.828-0.672 1.5-1.5 1.5s-1.5-0.672-1.5-1.5z"></path>
</symbol>
<symbol id="icon-podcast" viewBox="0 0 24 24">
<path d="M24 12c0-6.627-5.373-12-12-12s-12 5.373-12 12c0 5.158 3.254 9.555 7.821 11.252l-0.321 0.748h9l-0.321-0.748c4.567-1.697 7.821-6.094 7.821-11.252zM11.409 14.879c-0.535-0.229-0.909-0.76-0.909-1.379 0-0.828 0.672-1.5 1.5-1.5s1.5 0.672 1.5 1.5c0 0.619-0.374 1.149-0.909 1.379l-0.591-1.379-0.591 1.379zM12.616 14.937c1.362-0.284 2.384-1.491 2.384-2.937 0-1.657-1.343-3-3-3s-3 1.343-3 3c0 1.446 1.023 2.651 2.385 2.935l-1.749 4.081c-2.138-0.918-3.636-3.042-3.636-5.516 0-3.314 2.686-6.281 6-6.281s6 2.968 6 6.281c0 2.474-1.498 4.598-3.636 5.516l-1.748-4.079zM16.136 23.149l-1.733-4.043c2.964-1.002 5.097-3.805 5.097-7.107 0-4.142-3.358-7.5-7.5-7.5s-7.5 3.358-7.5 7.5c0 3.302 2.134 6.105 5.097 7.107l-1.733 4.043c-3.74-1.605-6.361-5.321-6.361-9.649 0-5.797 4.699-10.777 10.496-10.777s10.496 4.981 10.496 10.777c0 4.328-2.62 8.044-6.361 9.649z"></path>
</symbol>
<symbol id="icon-feed" viewBox="0 0 24 24">
<path d="M9 12c0-1.657 1.343-3 3-3s3 1.343 3 3c0 1.657-1.343 3-3 3s-3-1.343-3-3zM15.571 5.403c2.34 1.269 3.929 3.748 3.929 6.597s-1.589 5.328-3.929 6.597c1.033-1.644 1.679-3.991 1.679-6.597s-0.647-4.953-1.679-6.597zM6.75 12c0 2.606 0.646 4.953 1.679 6.597-2.34-1.269-3.929-3.748-3.929-6.597s1.589-5.328 3.929-6.597c-1.033 1.644-1.679 3.991-1.679 6.597zM2.25 12c0 4.029 1.275 7.645 3.297 10.118-3.335-2.132-5.547-5.867-5.547-10.118s2.211-7.987 5.547-10.118c-2.021 2.474-3.297 6.090-3.297 10.118zM18.454 1.882c3.335 2.132 5.546 5.867 5.546 10.118s-2.211 7.987-5.546 10.118c2.021-2.474 3.296-6.090 3.296-10.118s-1.275-7.645-3.296-10.118z"></path>
</symbol>
<symbol id="icon-mic" viewBox="0 0 24 24">
<path d="M11.25 16.5c2.071 0 3.75-1.679 3.75-3.75v-9c0-2.071-1.679-3.75-3.75-3.75s-3.75 1.679-3.75 3.75v9c0 2.071 1.679 3.75 3.75 3.75zM16.5 10.5v2.25c0 2.899-2.351 5.25-5.25 5.25s-5.25-2.351-5.25-5.25v-2.25h-1.5v2.25c0 3.474 2.625 6.335 6 6.708v3.042h-3v1.5h7.5v-1.5h-3v-3.042c3.375-0.373 6-3.234 6-6.708v-2.25h-1.5z"></path>
</symbol>
<symbol id="icon-book" viewBox="0 0 24 24">
<path d="M21 3v19.5h-15.75c-1.243 0-2.25-1.007-2.25-2.25s1.007-2.25 2.25-2.25h14.25v-18h-15c-1.65 0-3 1.35-3 3v18c0 1.65 1.35 3 3 3h18v-21h-1.5z"></path>
<path d="M5.251 19.5v0c-0 0-0.001 0-0.001 0-0.414 0-0.75 0.336-0.75 0.75s0.336 0.75 0.75 0.75c0 0 0.001-0 0.001-0v0h14.247v-1.5h-14.247z"></path>
</symbol>
<symbol id="icon-books" viewBox="0 0 27 24">
<path d="M5.25 3h-4.5c-0.413 0-0.75 0.338-0.75 0.75v16.5c0 0.413 0.338 0.75 0.75 0.75h4.5c0.412 0 0.75-0.337 0.75-0.75v-16.5c0-0.412-0.338-0.75-0.75-0.75zM4.5 7.5h-3v-1.5h3v1.5z"></path>
<path d="M12.75 3h-4.5c-0.413 0-0.75 0.338-0.75 0.75v16.5c0 0.413 0.337 0.75 0.75 0.75h4.5c0.413 0 0.75-0.337 0.75-0.75v-16.5c0-0.412-0.337-0.75-0.75-0.75zM12 7.5h-3v-1.5h3v1.5z"></path>
<path d="M17.932 4.16l-4.019 2.025c-0.368 0.186-0.518 0.639-0.332 1.007l6.749 13.396c0.186 0.368 0.639 0.518 1.007 0.332l4.019-2.025c0.368-0.186 0.518-0.639 0.332-1.007l-6.749-13.396c-0.186-0.368-0.639-0.518-1.007-0.332z"></path>
</symbol>
<symbol id="icon-library" viewBox="0 0 26 24">
<path d="M24 22.5v-1.5h-1.5v-9h1.5v-1.5h-4.5v1.5h1.5v9h-4.5v-9h1.5v-1.5h-4.5v1.5h1.5v9h-4.5v-9h1.5v-1.5h-4.5v1.5h1.5v9h-4.5v-9h1.5v-1.5h-4.5v1.5h1.5v9h-1.5v1.5h-1.5v1.5h25.5v-1.5h-1.5z"></path>
<path d="M12 0h1.5l12 7.5v1.5h-25.5v-1.5l12-7.5z"></path>
</symbol>
<symbol id="icon-file-text" viewBox="0 0 24 24">
<path d="M20.25 0h-18c-1.237 0-2.25 1.013-2.25 2.25v19.5c0 1.237 1.013 2.25 2.25 2.25h18c1.237 0 2.25-1.013 2.25-2.25v-19.5c0-1.237-1.013-2.25-2.25-2.25zM19.5 21h-16.5v-18h16.5v18zM6 10.5h10.5v1.5h-10.5zM6 13.5h10.5v1.5h-10.5zM6 16.5h10.5v1.5h-10.5zM6 7.5h10.5v1.5h-10.5z"></path>
</symbol>
<symbol id="icon-profile" viewBox="0 0 24 24">
<path d="M20.25 0h-18c-1.237 0-2.25 1.013-2.25 2.25v19.5c0 1.237 1.013 2.25 2.25 2.25h18c1.237 0 2.25-1.013 2.25-2.25v-19.5c0-1.237-1.013-2.25-2.25-2.25zM19.5 21h-16.5v-18h16.5v18zM6 13.5h10.5v1.5h-10.5zM6 16.5h10.5v1.5h-10.5zM7.5 6.75c0-1.243 1.007-2.25 2.25-2.25s2.25 1.007 2.25 2.25c0 1.243-1.007 2.25-2.25 2.25s-2.25-1.007-2.25-2.25zM11.25 9h-3c-1.238 0-2.25 0.675-2.25 1.5v1.5h7.5v-1.5c0-0.825-1.013-1.5-2.25-1.5z"></path>
</symbol>
<symbol id="icon-file-empty" viewBox="0 0 24 24">
<path d="M21.511 5.369c-0.521-0.71-1.246-1.54-2.043-2.337s-1.627-1.523-2.337-2.043c-1.209-0.886-1.795-0.989-2.131-0.989h-11.625c-1.034 0-1.875 0.841-1.875 1.875v20.25c0 1.034 0.841 1.875 1.875 1.875h17.25c1.034 0 1.875-0.841 1.875-1.875v-14.625c0-0.336-0.102-0.922-0.989-2.131zM18.407 4.093c0.72 0.72 1.284 1.369 1.701 1.907h-3.608v-3.608c0.539 0.417 1.188 0.982 1.907 1.701zM21 22.125c0 0.203-0.172 0.375-0.375 0.375h-17.25c-0.203 0-0.375-0.172-0.375-0.375v-20.25c0-0.203 0.172-0.375 0.375-0.375 0 0 11.624-0 11.625 0v5.25c0 0.414 0.336 0.75 0.75 0.75h5.25v14.625z"></path>
</symbol>
<symbol id="icon-files-empty" viewBox="0 0 24 24">
<path d="M21.511 8.369c-0.521-0.71-1.246-1.54-2.043-2.337s-1.627-1.523-2.337-2.043c-1.209-0.886-1.795-0.989-2.131-0.989h-8.625c-1.034 0-1.875 0.841-1.875 1.875v17.25c0 1.034 0.841 1.875 1.875 1.875h14.25c1.034 0 1.875-0.841 1.875-1.875v-11.625c0-0.336-0.102-0.922-0.989-2.131zM18.407 7.093c0.72 0.72 1.284 1.369 1.701 1.907h-3.608v-3.608c0.539 0.417 1.188 0.982 1.907 1.701v0zM21 22.125c0 0.203-0.172 0.375-0.375 0.375h-14.25c-0.203 0-0.375-0.172-0.375-0.375v-17.25c0-0.203 0.172-0.375 0.375-0.375 0 0 8.624-0 8.625 0v5.25c0 0.414 0.336 0.75 0.75 0.75h5.25v11.625z"></path>
<path d="M14.131 0.989c-1.209-0.886-1.795-0.989-2.131-0.989h-8.625c-1.034 0-1.875 0.841-1.875 1.875v17.25c0 0.905 0.645 1.663 1.5 1.837v-19.087c0-0.203 0.172-0.375 0.375-0.375h11.411c-0.226-0.186-0.446-0.358-0.655-0.511z"></path>
</symbol>
<symbol id="icon-file-text2" viewBox="0 0 24 24">
<path d="M21.511 5.369c-0.521-0.71-1.246-1.54-2.043-2.337s-1.627-1.523-2.337-2.043c-1.209-0.886-1.795-0.989-2.131-0.989h-11.625c-1.034 0-1.875 0.841-1.875 1.875v20.25c0 1.034 0.841 1.875 1.875 1.875h17.25c1.034 0 1.875-0.841 1.875-1.875v-14.625c0-0.336-0.102-0.922-0.989-2.131zM18.407 4.093c0.72 0.72 1.284 1.369 1.701 1.907h-3.608v-3.608c0.539 0.417 1.188 0.982 1.907 1.701zM21 22.125c0 0.203-0.172 0.375-0.375 0.375h-17.25c-0.203 0-0.375-0.172-0.375-0.375v-20.25c0-0.203 0.172-0.375 0.375-0.375 0 0 11.624-0 11.625 0v5.25c0 0.414 0.336 0.75 0.75 0.75h5.25v14.625z"></path>
<path d="M17.25 19.5h-10.5c-0.414 0-0.75-0.336-0.75-0.75s0.336-0.75 0.75-0.75h10.5c0.414 0 0.75 0.336 0.75 0.75s-0.336 0.75-0.75 0.75z"></path>
<path d="M17.25 16.5h-10.5c-0.414 0-0.75-0.336-0.75-0.75s0.336-0.75 0.75-0.75h10.5c0.414 0 0.75 0.336 0.75 0.75s-0.336 0.75-0.75 0.75z"></path>
<path d="M17.25 13.5h-10.5c-0.414 0-0.75-0.336-0.75-0.75s0.336-0.75 0.75-0.75h10.5c0.414 0 0.75 0.336 0.75 0.75s-0.336 0.75-0.75 0.75z"></path>
</symbol>
<symbol id="icon-file-picture" viewBox="0 0 24 24">
<path d="M19.5 21h-15v-3l4.5-7.5 6.164 7.5 4.336-3v6z"></path>
<path d="M19.5 11.25c0 1.243-1.007 2.25-2.25 2.25s-2.25-1.007-2.25-2.25 1.007-2.25 2.25-2.25c1.243 0 2.25 1.007 2.25 2.25z"></path>
<path d="M21.511 5.369c-0.521-0.71-1.246-1.54-2.043-2.337s-1.627-1.523-2.337-2.043c-1.209-0.886-1.795-0.989-2.131-0.989h-11.625c-1.034 0-1.875 0.841-1.875 1.875v20.25c0 1.034 0.841 1.875 1.875 1.875h17.25c1.034 0 1.875-0.841 1.875-1.875v-14.625c0-0.336-0.102-0.922-0.989-2.131zM18.407 4.093c0.72 0.72 1.284 1.369 1.701 1.907h-3.608v-3.608c0.539 0.417 1.188 0.982 1.907 1.701zM21 22.125c0 0.203-0.172 0.375-0.375 0.375h-17.25c-0.203 0-0.375-0.172-0.375-0.375v-20.25c0-0.203 0.172-0.375 0.375-0.375 0 0 11.624-0 11.625 0v5.25c0 0.414 0.336 0.75 0.75 0.75h5.25v14.625z"></path>
</symbol>
<symbol id="icon-file-music" viewBox="0 0 24 24">
<path d="M21.511 5.369c-0.521-0.71-1.246-1.54-2.043-2.337s-1.627-1.523-2.337-2.043c-1.209-0.886-1.795-0.989-2.131-0.989h-11.625c-1.034 0-1.875 0.841-1.875 1.875v20.25c0 1.034 0.841 1.875 1.875 1.875h17.25c1.034 0 1.875-0.841 1.875-1.875v-14.625c0-0.336-0.102-0.922-0.989-2.131v0zM18.407 4.093c0.72 0.72 1.284 1.369 1.701 1.907h-3.608v-3.608c0.539 0.417 1.188 0.982 1.907 1.701v0zM21 22.125c0 0.203-0.172 0.375-0.375 0.375h-17.25c-0.203 0-0.375-0.172-0.375-0.375v-20.25c0-0.203 0.172-0.375 0.375-0.375 0 0 11.624-0 11.625 0v5.25c0 0.414 0.336 0.75 0.75 0.75h5.25v14.625z"></path>
<path d="M17.726 9.17c-0.174-0.143-0.402-0.2-0.623-0.155l-7.5 1.5c-0.351 0.070-0.603 0.378-0.603 0.735v5.552c-0.441-0.192-0.953-0.302-1.5-0.302-1.657 0-3 1.007-3 2.25s1.343 2.25 3 2.25 3-1.007 3-2.25v-5.385l6-1.2v3.137c-0.441-0.192-0.953-0.302-1.5-0.302-1.657 0-3 1.007-3 2.25s1.343 2.25 3 2.25 3-1.007 3-2.25v-7.5c0-0.225-0.101-0.438-0.274-0.58z"></path>
</symbol>
<symbol id="icon-file-play" viewBox="0 0 24 24">
<path d="M9 9l7.5 5.25-7.5 5.25v-10.5z"></path>
<path d="M21.511 5.369c-0.521-0.71-1.246-1.54-2.043-2.337s-1.627-1.523-2.337-2.043c-1.209-0.886-1.795-0.989-2.131-0.989h-11.625c-1.034 0-1.875 0.841-1.875 1.875v20.25c0 1.034 0.841 1.875 1.875 1.875h17.25c1.034 0 1.875-0.841 1.875-1.875v-14.625c0-0.336-0.102-0.922-0.989-2.131zM18.407 4.093c0.72 0.72 1.284 1.369 1.701 1.907h-3.608v-3.608c0.539 0.417 1.188 0.982 1.907 1.701zM21 22.125c0 0.203-0.172 0.375-0.375 0.375h-17.25c-0.203 0-0.375-0.172-0.375-0.375v-20.25c0-0.203 0.172-0.375 0.375-0.375 0 0 11.624-0 11.625 0v5.25c0 0.414 0.336 0.75 0.75 0.75h5.25v14.625z"></path>
</symbol>
<symbol id="icon-file-video" viewBox="0 0 24 24">
<path d="M21.511 5.369c-0.52-0.71-1.246-1.54-2.043-2.337s-1.627-1.523-2.337-2.043c-1.209-0.886-1.795-0.989-2.131-0.989h-11.625c-1.034 0-1.875 0.841-1.875 1.875v20.25c0 1.034 0.841 1.875 1.875 1.875h17.25c1.034 0 1.875-0.841 1.875-1.875v-14.625c0-0.336-0.102-0.922-0.989-2.131v0 0zM18.407 4.093c0.72 0.72 1.284 1.369 1.701 1.907h-3.608v-3.608c0.539 0.417 1.188 0.982 1.907 1.701v0 0zM21 22.125c0 0.203-0.172 0.375-0.375 0.375h-17.25c-0.203 0-0.375-0.172-0.375-0.375v-20.25c0-0.203 0.172-0.375 0.375-0.375 0 0 11.624-0 11.625 0v5.25c0 0.414 0.336 0.75 0.75 0.75h5.25v14.625z"></path>
<path d="M6 12h7.5v7.5h-7.5v-7.5z"></path>
<path d="M13.5 15l4.5-3v7.5l-4.5-3z"></path>
</symbol>
<symbol id="icon-file-zip" viewBox="0 0 24 24">
<path d="M21.511 5.369c-0.52-0.71-1.246-1.54-2.043-2.337s-1.627-1.523-2.337-2.043c-1.209-0.886-1.795-0.989-2.131-0.989h-11.625c-1.034 0-1.875 0.841-1.875 1.875v20.25c0 1.034 0.841 1.875 1.875 1.875h17.25c1.034 0 1.875-0.841 1.875-1.875v-14.625c0-0.336-0.102-0.922-0.989-2.131v0 0zM18.407 4.093c0.72 0.72 1.284 1.369 1.701 1.907h-3.608v-3.608c0.539 0.417 1.188 0.982 1.907 1.701v0 0zM21 22.125c0 0.203-0.172 0.375-0.375 0.375h-17.25c-0.203 0-0.375-0.172-0.375-0.375v-20.25c0-0.203 0.172-0.375 0.375-0.375 0 0 11.624-0 11.625 0v5.25c0 0.414 0.336 0.75 0.75 0.75h5.25v14.625z"></path>
<path d="M6 1.5h3v1.5h-3v-1.5z"></path>
<path d="M9 3h3v1.5h-3v-1.5z"></path>
<path d="M6 4.5h3v1.5h-3v-1.5z"></path>
<path d="M9 6h3v1.5h-3v-1.5z"></path>
<path d="M6 7.5h3v1.5h-3v-1.5z"></path>
<path d="M9 9h3v1.5h-3v-1.5z"></path>
<path d="M6 10.5h3v1.5h-3v-1.5z"></path>
<path d="M9 12h3v1.5h-3v-1.5z"></path>
<path d="M6 19.875c0 0.619 0.506 1.125 1.125 1.125h3.75c0.619 0 1.125-0.506 1.125-1.125v-3.75c0-0.619-0.506-1.125-1.125-1.125h-1.875v-1.5h-3v6.375zM10.5 18v1.5h-3v-1.5h3z"></path>
</symbol>
<symbol id="icon-copy" viewBox="0 0 24 24">
<path d="M15 6v-6h-10.5l-4.5 4.5v13.5h9v6h15v-18h-9zM4.5 2.121v2.379h-2.379l2.379-2.379zM1.5 16.5v-10.5h4.5v-4.5h7.5v4.5l-4.5 4.5v6h-7.5zM13.5 8.121v2.379h-2.379l2.379-2.379zM22.5 22.5h-12v-10.5h4.5v-4.5h7.5v15z"></path>
</symbol>
<symbol id="icon-paste" viewBox="0 0 24 24">
<path d="M16.5 3h-3v-1.5c0-0.825-0.675-1.5-1.5-1.5h-3c-0.825 0-1.5 0.675-1.5 1.5v1.5h-3v3h12v-3zM12 3h-3v-1.497c0.001-0.001 0.002-0.002 0.003-0.003h2.995c0.001 0.001 0.002 0.002 0.003 0.003v1.497zM19.5 7.5v-3.75c0-0.412-0.337-0.75-0.75-0.75h-1.5v1.5h0.75v3h-4.5l-4.5 4.5v6h-6v-13.5h0.75v-1.5h-1.5c-0.413 0-0.75 0.338-0.75 0.75v15c0 0.413 0.337 0.75 0.75 0.75h6.75v4.5h15v-16.5h-4.5zM13.5 9.621v2.379h-2.379l2.379-2.379zM22.5 22.5h-12v-9h4.5v-4.5h7.5v13.5z"></path>
</symbol>
<symbol id="icon-stack" viewBox="0 0 24 24">
<path d="M24 7.5l-12-6-12 6 12 6 12-6zM12 3.491l8.017 4.009-8.017 4.009-8.017-4.009 8.017-4.009zM21.596 10.798l2.404 1.202-12 6-12-6 2.404-1.202 9.596 4.798zM21.596 15.298l2.404 1.202-12 6-12-6 2.404-1.202 9.596 4.798z"></path>
</symbol>
<symbol id="icon-folder" viewBox="0 0 24 24">
<path d="M10.5 3l3 3h10.5v16.5h-24v-19.5z"></path>
</symbol>
<symbol id="icon-folder-open" viewBox="0 0 24 24">
<path d="M19.5 22.5l4.5-12h-19.5l-4.5 12zM3 9l-3 13.5v-19.5h6.75l3 3h9.75v3z"></path>
</symbol>
<symbol id="icon-folder-plus" viewBox="0 0 24 24">
<path d="M13.5 6l-3-3h-10.5v19.5h24v-16.5h-10.5zM16.5 16.5h-3v3h-3v-3h-3v-3h3v-3h3v3h3v3z"></path>
</symbol>
<symbol id="icon-folder-minus" viewBox="0 0 24 24">
<path d="M13.5 6l-3-3h-10.5v19.5h24v-16.5h-10.5zM16.5 16.5h-9v-3h9v3z"></path>
</symbol>
<symbol id="icon-folder-download" viewBox="0 0 24 24">
<path d="M13.5 6l-3-3h-10.5v19.5h24v-16.5h-10.5zM12 20.25l-5.25-5.25h3.75v-6h3v6h3.75l-5.25 5.25z"></path>
</symbol>
<symbol id="icon-folder-upload" viewBox="0 0 24 24">
<path d="M13.5 6l-3-3h-10.5v19.5h24v-16.5h-10.5zM12 11.25l5.25 5.25h-3.75v6h-3v-6h-3.75l5.25-5.25z"></path>
</symbol>
<symbol id="icon-price-tag" viewBox="0 0 24 24">
<path d="M22.875 0h-9c-0.619 0-1.483 0.358-1.921 0.796l-11.159 11.159c-0.438 0.438-0.438 1.153 0 1.591l9.659 9.659c0.438 0.438 1.153 0.438 1.591 0l11.159-11.159c0.437-0.437 0.795-1.302 0.795-1.92v-9c0-0.619-0.506-1.125-1.125-1.125zM17.25 9c-1.243 0-2.25-1.007-2.25-2.25s1.007-2.25 2.25-2.25 2.25 1.007 2.25 2.25-1.007 2.25-2.25 2.25z"></path>
</symbol>
<symbol id="icon-price-tags" viewBox="0 0 30 24">
<path d="M28.875 0h-9c-0.619 0-1.483 0.358-1.921 0.796l-11.159 11.159c-0.438 0.438-0.438 1.153 0 1.591l9.659 9.659c0.438 0.438 1.153 0.438 1.591 0l11.159-11.159c0.437-0.437 0.795-1.302 0.795-1.92v-9c0-0.619-0.506-1.125-1.125-1.125zM23.25 9c-1.243 0-2.25-1.007-2.25-2.25s1.007-2.25 2.25-2.25 2.25 1.007 2.25 2.25-1.007 2.25-2.25 2.25z"></path>
<path d="M3 12.75l12.75-12.75h-1.875c-0.619 0-1.483 0.358-1.921 0.796l-11.159 11.159c-0.438 0.438-0.438 1.153 0 1.591l9.659 9.659c0.438 0.438 1.153 0.438 1.591 0l0.704-0.704-9.75-9.75z"></path>
</symbol>
</defs>
</svg>
